<svg xmlns="http://www.w3.org/2000/svg" width="512" height="512" style=""><rect id="backgroundrect" width="100%" height="100%" x="0" y="0" fill="none" stroke="none"/><defs><linearGradient id="svg_2"><stop stop-color="#1271d1" stop-opacity="1" offset="0.8046875"/><stop stop-color="#ed8e2e" stop-opacity="1" offset="1"/></linearGradient></defs><!--! Font Awesome Pro 6.1.2 by @fontawesome - https://fontawesome.com License - https://fontawesome.com/license (Commercial License) Copyright 2022 Fonticons, Inc. --><g class="currentLayer" style=""><title>Layer 1</title><path d="M0,190.9L0,185.1C0,115.2 50.52,55.58 119.4,44.1C164.1,36.51 211.4,51.37 244,84.02L256,96L267.1,84.02C300.6,51.37 347,36.51 392.6,44.1C461.5,55.58 512,115.2 512,185.1L512,190.9C512,232.4 494.8,272.1 464.4,300.4L283.7,469.1C276.2,476.1 266.3,480 256,480C245.7,480 235.8,476.1 228.3,469.1L47.59,300.4C17.23,272.1 0.0003,232.4 0.0003,190.9L0,190.9z" id="svg_1" class="" fill="#ffffff" fill-opacity="1"/></g></svg>